<svg width="728" height="573" viewBox="0 0 728 573" fill="none" xmlns="http://www.w3.org/2000/svg">
<g clip-path="url(#clip0_49_203)">
<path d="M551.177 346.869C566.94 301.665 568.302 252.569 555.263 199.498C542.225 146.454 518.233 103.586 483.315 70.8363C448.398 38.1149 407.67 16.764 361.159 6.78352C335.527 1.30679 309.617 -0.861666 283.456 0.278163C262.105 1.19559 240.588 4.30926 218.875 9.647C214.344 10.759 209.896 11.9823 205.475 13.2611C162.662 25.6046 124.659 45.5377 91.4924 73.0882C54.8789 103.502 28.7184 141.311 12.9555 186.515C-2.80754 231.719 -4.16977 280.843 8.86876 333.886C21.9073 386.93 45.8993 429.827 80.8169 462.548C115.735 495.269 156.463 516.648 202.973 526.601C249.484 536.553 296.912 535.608 345.257 523.71C371.167 517.343 395.382 508.28 417.928 496.576L546.201 573.028L727.155 528.519L525.934 399.607C536.164 383.288 544.588 365.746 551.177 346.869ZM412.896 309.533C407.392 332.608 396.216 352.152 379.369 368.109C362.521 384.094 341.143 395.243 315.232 401.609C289.322 407.975 265.191 408.003 242.867 401.665C220.543 395.326 201.583 383.233 186.015 365.329C170.419 347.453 159.298 324.935 152.626 297.801C145.954 270.695 145.37 245.591 150.875 222.517C156.379 199.442 167.555 179.926 184.402 163.941C201.25 147.983 222.628 136.807 248.538 130.441C274.449 124.075 298.552 124.047 320.904 130.385C343.228 136.724 362.188 148.845 377.756 166.721C393.324 184.625 404.473 207.115 411.145 234.249C417.817 261.354 418.401 286.458 412.896 309.533Z" fill="#BB1B1B"/>
<path d="M294.104 254.154L282.734 158.936L270.307 254.015L175.062 265.385L270.168 277.812L281.538 373.057L293.965 277.951L389.182 266.581L294.104 254.154Z" fill="#BB1B1B" stroke="#BB1B1B" stroke-width="11.1203" stroke-miterlimit="10" stroke-linecap="round" stroke-linejoin="bevel"/>
<path d="M270.056 253.403L172.809 264.996L269.917 277.701L281.51 374.948L294.215 277.84L391.462 266.247L294.354 253.542L270.056 253.403Z" fill="#434448" stroke="#434448" stroke-width="11.1203" stroke-miterlimit="10" stroke-linecap="square" stroke-linejoin="bevel"/>
</g>
<defs>
<clipPath id="clip0_49_203">
<rect width="727.183" height="573" fill="white"/>
</clipPath>
</defs>
</svg>
