<svg width="622" height="434" viewBox="0 0 622 434" fill="none" xmlns="http://www.w3.org/2000/svg">
<g clip-path="url(#clip0_49_113)">
<path d="M99.2901 216.7L94.4201 196.88L111.89 192.58C122.27 190.03 130.74 186 137.31 180.49C143.88 174.98 148.36 168.51 150.76 161.07C153.16 153.63 153.32 145.67 151.23 137.19C149.14 128.71 145.31 121.73 139.74 116.25C134.16 110.77 127.19 107.12 118.82 105.28C110.45 103.45 101.07 103.8 90.6901 106.36L45.6801 117.43L71.2401 221.37C72.8301 220.91 74.4401 220.47 76.0601 220.07C83.8701 218.15 91.6101 217.03 99.2901 216.7ZM79.3801 135.73L96.4701 131.53C101.28 130.35 105.56 130.14 109.3 130.89C113.04 131.65 116.08 133.22 118.41 135.6C120.74 137.98 122.31 140.82 123.12 144.11C123.93 147.4 123.85 150.65 122.89 153.83C121.93 157.02 119.96 159.82 117 162.23C114.03 164.64 110.14 166.43 105.33 167.62L88.2401 171.82L79.3801 135.73Z" fill="#F5F5F5"/>
<path d="M190.583 81.8004L163.043 88.5728L195.732 221.507L223.273 214.734L190.583 81.8004Z" fill="#F5F5F5"/>
<path d="M281.97 193.46C294.1 196.65 306.43 196.71 318.97 193.63C329.48 191.05 338.74 186.69 346.77 180.55C354.79 174.42 361.12 166.85 365.76 157.86C370.39 148.87 372.86 138.96 373.16 128.15L344.67 135.15C343.31 143.27 339.84 150.3 334.25 156.24C328.66 162.18 321.5 166.22 312.76 168.37C304.91 170.3 297.35 170.14 290.09 167.9C282.82 165.66 276.52 161.71 271.16 156.04C265.81 150.38 262.12 143.43 260.09 135.2C258.07 126.97 258.11 119.11 260.23 111.6C262.34 104.1 266.1 97.67 271.5 92.32C276.9 86.97 283.52 83.32 291.37 81.39C299.85 79.3 307.98 79.59 315.75 82.24C323.52 84.9 329.95 89.49 335.05 96.02L363.73 88.97C358.33 79.56 351.45 71.95 343.11 66.15C334.77 60.35 325.65 56.58 315.76 54.85C305.87 53.12 295.67 53.55 285.16 56.13C272.63 59.21 261.73 64.98 252.46 73.43C243.19 81.89 236.68 92.11 232.92 104.11C229.16 116.11 228.91 128.76 232.18 142.05C235.45 155.34 241.53 166.43 250.43 175.32C259.32 184.22 269.84 190.27 281.97 193.46Z" fill="#F5F5F5"/>
<path d="M422.47 165.76L450 158.99L423.53 51.31L456.38 43.23L450.17 17.98L356.74 40.95L362.95 66.21L395.99 58.08L422.47 165.76Z" fill="#F5F5F5"/>
<path d="M505.83 145.26L509.05 115.27L561.81 102.3L578.57 127.38L607.62 120.24L523.28 0L496.12 6.68L476.96 152.36L505.83 145.26ZM517.26 34.49L547.36 79.26L511.35 88.11L517.26 34.49Z" fill="#F5F5F5"/>
<path d="M198.26 352.2C203.93 335.94 204.42 318.28 199.73 299.19C195.04 280.11 186.41 264.69 173.85 252.91C161.29 241.14 146.64 233.46 129.91 229.87C120.69 227.9 111.37 227.12 101.96 227.53C94.28 227.86 86.54 228.98 78.73 230.9C77.1 231.3 75.5 231.74 73.91 232.2C58.51 236.64 44.84 243.81 32.91 253.72C19.75 264.66 10.34 278.25 4.66001 294.51C-1.00999 310.77 -1.49999 328.44 3.19001 347.52C7.88001 366.6 16.51 382.03 29.07 393.8C41.63 405.57 56.28 413.26 73.01 416.84C89.74 420.42 106.8 420.08 124.19 415.8C133.51 413.51 142.22 410.25 150.33 406.04L196.47 433.54L261.56 417.53L189.18 371.16C192.86 365.3 195.89 358.99 198.26 352.2ZM148.52 338.77C146.54 347.07 142.52 354.1 136.46 359.84C130.4 365.59 122.71 369.6 113.39 371.89C104.07 374.18 95.39 374.19 87.36 371.91C79.33 369.63 72.51 365.28 66.91 358.84C61.3 352.41 57.3 344.31 54.9 334.55C52.5 324.8 52.29 315.77 54.27 307.47C56.25 299.17 60.27 292.15 66.33 286.4C72.39 280.66 80.08 276.64 89.4 274.35C98.72 272.06 107.39 272.05 115.43 274.33C123.46 276.61 130.28 280.97 135.88 287.4C141.48 293.84 145.49 301.93 147.89 311.69C150.29 321.44 150.5 330.47 148.52 338.77Z" fill="#F5F5F5"/>
<path d="M282.36 313.07C283.17 316.35 283.5 319.32 283.37 321.98C283.24 324.65 282.39 327.01 280.83 329.08C279.26 331.15 276.84 332.58 273.57 333.39C270.29 334.2 267.48 334.05 265.14 332.94C262.79 331.84 260.95 330.13 259.6 327.83C258.25 325.53 257.17 322.74 256.37 319.47L241.09 257.34L203.05 266.69L218.91 331.19C221.25 340.7 225.36 348.65 231.25 355.05C237.13 361.45 244.41 365.76 253.09 368C261.76 370.24 271.38 370.06 281.95 367.46C292.51 364.86 301.12 360.56 307.77 354.56C314.42 348.56 318.86 341.36 321.11 332.96C323.36 324.57 323.32 315.61 320.98 306.1L305.12 241.6L267.08 250.95L282.36 313.07Z" fill="#F5F5F5"/>
<path d="M381.5 295.92L422.7 285.79L415.88 258.05L374.68 268.18L371.75 256.3L414.55 245.78L407.34 216.46L326.51 236.33L353.79 347.27L436.2 327.01L428.99 297.69L384.61 308.6L381.5 295.92Z" fill="#F5F5F5"/>
<path d="M509.71 243.55C504.01 242.49 496.98 241.81 488.62 241.51C484.08 241.28 480.58 241.05 478.11 240.82C475.64 240.59 473.52 240.05 471.74 239.19C469.96 238.34 468.87 237.07 468.45 235.38C468.09 233.9 468.09 232.56 468.47 231.34C468.85 230.13 469.59 229.08 470.72 228.18C471.84 227.29 473.3 226.62 475.1 226.18C477.74 225.53 480.05 225.58 482.03 226.33C484 227.08 485.56 228.29 486.71 229.97C487.85 231.65 488.69 233.6 489.24 235.82L524.11 227.25C521.67 217.77 517.48 210.65 511.55 205.89C505.62 201.13 498.87 198.31 491.32 197.42C483.76 196.53 476.02 197.06 468.1 199.01C459.23 201.19 451.72 204.52 445.6 209C439.47 213.48 435.15 218.69 432.63 224.62C430.11 230.56 429.66 236.81 431.27 243.36C433.24 251.39 436.77 257.41 441.85 261.43C446.93 265.45 452.35 268.01 458.11 269.11C463.87 270.21 470.95 270.97 479.34 271.37C483.88 271.6 487.35 271.84 489.77 272.08C492.18 272.33 494.28 272.88 496.06 273.73C497.84 274.58 498.94 275.85 499.35 277.54C499.71 279.02 499.68 280.37 499.25 281.6C498.82 282.83 497.94 283.91 496.61 284.86C495.27 285.81 493.39 286.58 490.96 287.17C488.21 287.85 485.78 287.86 483.66 287.2C481.54 286.55 479.74 285.25 478.25 283.32C476.77 281.39 475.59 278.9 474.74 275.86L438.45 284.78C440.81 293.95 444.91 301.12 450.72 306.3C456.53 311.48 463.46 314.71 471.5 315.98C479.54 317.25 488.27 316.73 497.67 314.42C507.92 311.9 516.2 308.21 522.51 303.35C528.82 298.49 533.09 293.07 535.32 287.09C537.55 281.11 537.92 275.11 536.44 269.08C534.47 261.05 530.95 255.05 525.88 251.09C520.79 247.13 515.41 244.62 509.71 243.55Z" fill="#F5F5F5"/>
<path d="M531.37 221.25L557.52 214.82L576.62 292.48L614.65 283.13L595.56 205.47L621.71 199.04L613.52 165.76L523.19 187.97L531.37 221.25Z" fill="#F5F5F5"/>
<path d="M105.79 318.85L101.7 284.6L97.23 318.8L62.97 322.89L97.18 327.36L101.27 361.62L105.74 327.41L139.99 323.32L105.79 318.85Z" fill="#F5F5F5" stroke="#F5F5F5" stroke-width="4" stroke-miterlimit="10" stroke-linecap="round" stroke-linejoin="bevel"/>
</g>
<defs>
<clipPath id="clip0_49_113">
<rect width="621.71" height="433.54" fill="white"/>
</clipPath>
</defs>
</svg>
