<svg width="64" height="64" viewBox="0 0 64 64" fill="none" xmlns="http://www.w3.org/2000/svg">
<path d="M0 32C0 14.3269 14.3269 0 32 0C49.6731 0 64 14.3269 64 32C64 49.6731 49.6731 64 32 64C14.3269 64 0 49.6731 0 32Z" fill="#35473B"/>
<path d="M42.6667 29.3334C42.6667 35.9907 35.2813 42.924 32.8013 45.0654C32.5703 45.2391 32.2891 45.333 32 45.333C31.7109 45.333 31.4297 45.2391 31.1987 45.0654C28.7187 42.924 21.3333 35.9907 21.3333 29.3334C21.3333 26.5044 22.4571 23.7913 24.4575 21.7909C26.4579 19.7905 29.171 18.6667 32 18.6667C34.829 18.6667 37.5421 19.7905 39.5425 21.7909C41.5429 23.7913 42.6667 26.5044 42.6667 29.3334Z" stroke="#F5F5F5" stroke-width="2.66667" stroke-linecap="round" stroke-linejoin="round"/>
<path d="M32 33.3333C34.2091 33.3333 36 31.5425 36 29.3333C36 27.1242 34.2091 25.3333 32 25.3333C29.7909 25.3333 28 27.1242 28 29.3333C28 31.5425 29.7909 33.3333 32 33.3333Z" stroke="#F5F5F5" stroke-width="2.66667" stroke-linecap="round" stroke-linejoin="round"/>
</svg>
